<?xml version="1.0" standalone="no"?>
<!DOCTYPE svg PUBLIC "-//W3C//DTD SVG 20010904//EN"
 "http://www.w3.org/TR/2001/REC-SVG-20010904/DTD/svg10.dtd">
<svg version="1.0" xmlns="http://www.w3.org/2000/svg"
 width="400.000000pt" height="400.000000pt" viewBox="0 0 400.000000 400.000000"
 preserveAspectRatio="xMidYMid meet">
<metadata>
Created by potrace 1.11, written by Peter Selinger 2001-2013
</metadata>
<g transform="translate(0.000000,400.000000) scale(0.100000,-0.100000)"
fill="#000000" stroke="none">
<path d="M610 3382 c-60 -8 -91 -62 -178 -308 -121 -340 -178 -563 -192 -754
-5 -63 -12 -282 -16 -486 -7 -359 -6 -372 14 -440 39 -129 145 -270 236 -314
42 -20 56 -20 1667 -20 1251 0 1628 3 1637 12 9 9 12 89 12 298 l0 285 -132
34 c-337 85 -649 237 -898 438 -97 79 -279 267 -354 367 -124 165 -242 377
-321 576 -69 173 -93 205 -216 273 l-64 36 -585 3 c-322 2 -596 1 -610 0z
m1156 -207 c34 -34 57 -91 114 -286 50 -165 59 -233 40 -270 -10 -19 -29 -19
-755 -19 -726 0 -745 0 -755 19 -22 42 -10 99 64 293 81 215 89 233 119 266
l20 22 564 0 564 0 25 -25z m640 -902 c12 -4 14 -54 14 -279 l0 -274 -109 54
-108 55 -7 48 c-3 26 -9 183 -13 348 l-6 300 107 -123 c60 -68 114 -126 122
-129z m327 -288 l27 -20 -2 -207 -3 -206 -102 48 -103 49 0 240 0 241 78 -63
c42 -34 89 -71 105 -82z m-2096 -31 c112 -73 64 -274 -65 -274 -145 0 -184
215 -52 283 38 20 79 17 117 -9z m1103 -3 c57 -40 76 -131 41 -199 -65 -127
-243 -74 -243 72 0 51 13 85 43 113 49 45 107 50 159 14z m1285 -132 l50 -24
3 -167 2 -168 -22 0 c-33 0 -118 24 -155 44 l-33 17 0 184 0 185 53 -24 c28
-12 75 -34 102 -47z m225 -92 l75 -23 0 -154 0 -155 -44 4 c-25 1 -61 8 -80
14 l-36 12 -3 163 c-1 89 1 162 5 162 5 0 42 -10 83 -23z m240 -71 l55 -13 0
-139 0 -139 -45 2 c-96 5 -90 -6 -90 158 0 110 3 145 13 145 6 -1 37 -7 67
-14z m218 -42 c22 -4 23 -6 20 -142 l-3 -137 -34 3 c-82 9 -81 6 -81 150 0 71
3 131 6 135 6 6 33 3 92 -9z"/>
<path d="M500 905 l0 -75 -140 0 -140 0 0 -110 0 -110 978 3 977 3 115 41
c132 48 253 75 471 102 171 22 517 47 769 56 91 3 189 8 218 11 l52 5 0 75 0
74 -1140 0 -1140 0 0 -75 0 -75 -305 0 -305 0 0 75 0 75 -205 0 -205 0 0 -75z"/>
</g>
</svg>
